<svg id="visual" viewBox="0 0 900 600" width="900" height="600" xmlns="http://www.w3.org/2000/svg" xmlns:xlink="http://www.w3.org/1999/xlink" version="1.1"><rect x="0" y="0" width="900" height="600" fill="#EFF6FF"></rect><path d="M0 484L16.7 491.5C33.3 499 66.7 514 100 518.5C133.3 523 166.7 517 200 517.5C233.3 518 266.7 525 300 521.7C333.3 518.3 366.7 504.7 400 503C433.3 501.3 466.7 511.7 500 517.5C533.3 523.3 566.7 524.7 600 521.3C633.3 518 666.7 510 700 508.2C733.3 506.3 766.7 510.7 800 510.8C833.3 511 866.7 507 883.3 505L900 503L900 601L883.3 601C866.7 601 833.3 601 800 601C766.7 601 733.3 601 700 601C666.7 601 633.3 601 600 601C566.7 601 533.3 601 500 601C466.7 601 433.3 601 400 601C366.7 601 333.3 601 300 601C266.7 601 233.3 601 200 601C166.7 601 133.3 601 100 601C66.7 601 33.3 601 16.7 601L0 601Z" fill="#fffbfb" stroke-linecap="round" stroke-linejoin="miter"></path></svg>